<?xml version="1.0" encoding="UTF-8"?>
<!DOCTYPE svg PUBLIC "-//W3C//DTD SVG 1.1//EN" "http://www.w3.org/Graphics/SVG/1.1/DTD/svg11.dtd">
<!-- Creator: CorelDRAW -->
<svg xmlns="http://www.w3.org/2000/svg" xml:space="preserve" width="6.82666in" height="6.82666in" style="shape-rendering:geometricPrecision; text-rendering:geometricPrecision; image-rendering:optimizeQuality; fill-rule:evenodd; clip-rule:evenodd"
viewBox="0 0 6.82666 6.82666"
 xmlns:xlink="http://www.w3.org/1999/xlink">
 <defs>
  <style type="text/css">
   <![CDATA[
    .fil0 {fill:#8BC34A}
    .fil1 {fill:#FFFFFE;fill-rule:nonzero}
   ]]>
  </style>
 </defs>
 <g id="Layer_x0020_1">
  <metadata id="CorelCorpID_0Corel-Layer"/>
  <rect class="fil0" width="6.82666" height="6.82666" rx="0.853335" ry="0.853335"/>
  <g id="_213226936">
   <path id="_213228040" class="fil1" d="M0.96 1.47453l4.90667 0c0.0589094,0 0.106669,0.0477598 0.106669,0.106669l0 2.9176c0,0.0589094 -0.0477598,0.106669 -0.106669,0.106669l-4.90667 0c-0.0589094,0 -0.106669,-0.0477598 -0.106669,-0.106669l0 -2.9176c0,-0.0589094 0.0477598,-0.106669 0.106669,-0.106669zm4.69062 0.338339l-4.47718 0 0 2.23551 4.47718 0 0 -2.23551z"/>
   <path id="_213227824" class="fil1" d="M3.83991 4.60546c0,-0.0589094 -0.190996,-0.106669 -0.426579,-0.106669 -0.235583,0 -0.426579,0.0477598 -0.426579,0.106669l0 0.64c0,0.0589094 0.190996,0.106669 0.426579,0.106669 0.235583,0 0.426579,-0.0477598 0.426579,-0.106669l0 -0.64z"/>
   <path id="_213227968" class="fil1" d="M2.31094 5.24545c0,0.0589094 0.0548425,0.106669 0.122488,0.106669l1.95979 0c0.0676457,0 0.122488,-0.0477598 0.122488,-0.106669 0,-0.33689 -2.20477,-0.344094 -2.20477,0z"/>
   <g>
    <path id="_213228112" class="fil1" d="M3.63156 2.23661c0.14002,-0.132811 0.320559,-0.196299 0.499244,-0.191583 0.179059,0.00473228 0.356157,0.0775984 0.488823,0.217469 0.132815,0.140024 0.196299,0.320563 0.191579,0.499248 -0.00472835,0.179063 -0.0775945,0.356154 -0.217469,0.488819 -0.14002,0.132811 -0.320559,0.196303 -0.49924,0.191587 -0.179063,-0.00473228 -0.356157,-0.0775984 -0.488827,-0.217469 -0.132815,-0.140024 -0.196299,-0.320563 -0.191579,-0.499248 0.00472835,-0.179063 0.0776024,-0.356157 0.217469,-0.488823zm0.494244 0.0209213c-0.124484,-0.0032874 -0.250185,0.0408701 -0.347575,0.133244 -0.0975512,0.0925236 -0.148358,0.215555 -0.151634,0.339657 -0.00329134,0.124484 0.0408622,0.250185 0.13324,0.347579 0.0925276,0.0975472 0.215559,0.148354 0.339661,0.151634 0.12448,0.0032874 0.250181,-0.040874 0.347571,-0.133248 0.0975472,-0.0925197 0.148358,-0.215547 0.151634,-0.339654 0.00329134,-0.124484 -0.0408622,-0.250185 -0.13324,-0.347579 -0.0925236,-0.0975472 -0.215559,-0.148354 -0.339657,-0.151634z"/>
    <path id="_213227584" class="fil1" d="M4.61834 3.12212c-0.0402677,-0.0427992 -0.107618,-0.0448504 -0.150417,-0.00458268 -0.0427992,0.0402677 -0.0448504,0.107618 -0.00458268,0.150417l0.579287 0.617965c0.0402677,0.0427992 0.107618,0.0448504 0.150417,0.00458268 0.0427992,-0.0402677 0.0448504,-0.107618 0.00458268,-0.150417l-0.579287 -0.617965z"/>
    <polygon id="_213227032" class="fil1" points="1.60013,3.52135 4.55467,3.52135 4.75466,3.73469 1.60013,3.73469 "/>
    <path id="_213227368" class="fil1" d="M1.60013 2.88136l1.71888 0c0.0128465,0.0740945 0.0359921,0.145898 0.0686417,0.213339l-1.78752 0 0 -0.213339z"/>
    <path id="_213226960" class="fil1" d="M1.87931 2.06028l0.122803 0 0 0.386008c0,0.0503976 -0.00454331,0.0892992 -0.0133465,0.116413 -0.0119252,0.0354921 -0.0335039,0.0640276 -0.064878,0.0854646 -0.031374,0.0215787 -0.072689,0.0322283 -0.123941,0.0322283 -0.060189,0 -0.106472,-0.016752 -0.13898,-0.0505394 -0.0323701,-0.0336496 -0.0488386,-0.0830512 -0.0489803,-0.148213l0.115988 -0.0133465c0.00142126,0.0349252 0.0065315,0.059626 0.0153307,0.0741063 0.0133465,0.0218622 0.0336496,0.0327913 0.0607638,0.0327913 0.0273976,0 0.0468504,-0.00780709 0.0582047,-0.023563 0.0113583,-0.0156181 0.0170354,-0.0481299 0.0170354,-0.0975315l0 -0.393819zm0.228854 0.308638c0,-0.0621811 0.00922441,-0.114283 0.0278228,-0.156449 0.0139094,-0.0309449 0.0327953,-0.0589173 0.0567874,-0.0836142 0.0239921,-0.024563 0.0502559,-0.042878 0.0787913,-0.0547992 0.0380472,-0.016189 0.0817717,-0.0241378 0.131461,-0.0241378 0.0898661,0 0.161701,0.0278228 0.21565,0.0836181 0.0539449,0.0556496 0.0809213,0.133161 0.0809213,0.232402 0,0.0985236 -0.0268346,0.175469 -0.0803543,0.231122 -0.0535197,0.0555079 -0.125075,0.0833346 -0.214512,0.0833346 -0.0907165,0 -0.162839,-0.027685 -0.216362,-0.0829055 -0.0535157,-0.0553701 -0.0802047,-0.131606 -0.0802047,-0.228571zm0.126776 -0.00411811c0,0.0689961 0.0160394,0.121386 0.0478386,0.15702 0.0319449,0.0356299 0.0724094,0.053374 0.121524,0.053374 0.0489803,0 0.0892992,-0.0176024 0.120815,-0.0530945 0.031378,-0.0353465 0.0471378,-0.0883031 0.0471378,-0.159 0,-0.0698504 -0.0153386,-0.121953 -0.0458622,-0.156449 -0.0306614,-0.0343583 -0.0714055,-0.0515354 -0.122091,-0.0515354 -0.0508189,0 -0.0917087,0.0174646 -0.122799,0.0522441 -0.0309488,0.0347835 -0.046563,0.0871693 -0.046563,0.157441zm0.561051 -0.30452l0.24376 0c0.0482677,0 0.0843268,0.00198819 0.108039,0.0061063 0.0237087,0.00397244 0.0448583,0.0123504 0.0635984,0.0251299 0.0187362,0.0127756 0.0342165,0.0296693 0.0467087,0.0509646 0.0124921,0.0211535 0.0187362,0.045 0.0187362,0.0712677 0,0.0285315 -0.00766535,0.0547992 -0.023,0.0786496 -0.0154724,0.0238504 -0.0363425,0.0417402 -0.0626024,0.0536654 0.0370512,0.0107874 0.0657283,0.0292441 0.0856024,0.0552244 0.0200157,0.026122 0.0299567,0.0567835 0.0299567,0.0919921 0,0.027685 -0.00638583,0.0546575 -0.0193071,0.0809213 -0.0129213,0.026126 -0.0305236,0.0471339 -0.052815,0.062748 -0.0222874,0.0156181 -0.0498307,0.0252717 -0.082622,0.0289646 -0.0204449,0.00212598 -0.0699921,0.00354724 -0.1485,0.00411811l-0.207555 0 0 -0.609752zm0.123228 0.101508l0 0.140972 0.0806378 0c0.0479843,0 0.0777992,-0.000708661 0.089437,-0.00212992 0.0210118,-0.00241339 0.037626,-0.00965354 0.049689,-0.0217205 0.0120669,-0.0120669 0.0180315,-0.0279646 0.0180315,-0.0476969 0,-0.0188858 -0.00511024,-0.0342165 -0.0154724,-0.0460039 -0.0105079,-0.0117835 -0.0259803,-0.018878 -0.0464291,-0.0212913 -0.0122047,-0.00142126 -0.0472717,-0.00212992 -0.105197,-0.00212992l-0.0706969 0zm0 0.24248l0 0.162976 0.113858 0c0.0444331,0 0.0725433,-0.00113386 0.0844685,-0.00368898 0.0183189,-0.00326378 0.0332205,-0.0115 0.0447205,-0.0242756 0.0115,-0.0129213 0.0173228,-0.0302402 0.0173228,-0.0518189 0,-0.018311 -0.00454331,-0.0337913 -0.0133504,-0.046563 -0.00894488,-0.0127795 -0.0217165,-0.0221535 -0.0384724,-0.0279724 -0.016748,-0.0058189 -0.0532362,-0.00865748 -0.109169,-0.00865748l-0.099378 0z"/>
   </g>
  </g>
 </g>
</svg>
